<mxfile host="65bd71144e">
    <diagram id="-vW-JjisBw74QyunrIpX" name="Page-1">
        <mxGraphModel dx="1950" dy="1721" grid="1" gridSize="10" guides="1" tooltips="1" connect="1" arrows="1" fold="1" page="1" pageScale="1" pageWidth="827" pageHeight="1169" math="0" shadow="0">
            <root>
                <mxCell id="0"/>
                <mxCell id="1" parent="0"/>
                <mxCell id="2" value="" style="verticalLabelPosition=bottom;verticalAlign=top;html=1;shape=mxgraph.basic.rect;fillColor2=none;strokeWidth=1;size=20;indent=5;" vertex="1" parent="1">
                    <mxGeometry x="-120" y="-10" width="1030" height="670" as="geometry"/>
                </mxCell>
                <mxCell id="5" value="SubmissionStorage" style="sketch=0;outlineConnect=0;gradientColor=none;html=1;whiteSpace=wrap;fontSize=12;fontStyle=0;shape=mxgraph.aws4.group;grIcon=mxgraph.aws4.group_aws_cloud;strokeColor=#AAB7B8;fillColor=none;verticalAlign=top;align=left;spacingLeft=30;fontColor=#AAB7B8;dashed=0;" vertex="1" parent="1">
                    <mxGeometry x="360" y="40" width="520" height="590" as="geometry"/>
                </mxCell>
                <mxCell id="3" value="" style="outlineConnect=0;dashed=0;verticalLabelPosition=bottom;verticalAlign=top;align=center;html=1;shape=mxgraph.aws3.lambda_function;fillColor=#F58534;gradientColor=none;" vertex="1" parent="1">
                    <mxGeometry x="442" y="220" width="69" height="72" as="geometry"/>
                </mxCell>
                <mxCell id="4" value="FormOverview" style="text;html=1;strokeColor=none;fillColor=none;align=center;verticalAlign=middle;whiteSpace=wrap;rounded=0;" vertex="1" parent="1">
                    <mxGeometry x="451" y="292" width="60" height="30" as="geometry"/>
                </mxCell>
                <mxCell id="6" value="Webformulieren-management" style="sketch=0;outlineConnect=0;gradientColor=none;html=1;whiteSpace=wrap;fontSize=12;fontStyle=0;shape=mxgraph.aws4.group;grIcon=mxgraph.aws4.group_aws_cloud;strokeColor=#AAB7B8;fillColor=none;verticalAlign=top;align=left;spacingLeft=30;fontColor=#AAB7B8;dashed=0;" vertex="1" parent="1">
                    <mxGeometry x="-50" y="40" width="390" height="590" as="geometry"/>
                </mxCell>
                <mxCell id="7" value="" style="outlineConnect=0;dashed=0;verticalLabelPosition=bottom;verticalAlign=top;align=center;html=1;shape=mxgraph.aws3.lambda_function;fillColor=#F58534;gradientColor=none;" vertex="1" parent="1">
                    <mxGeometry x="50" y="110" width="69" height="72" as="geometry"/>
                </mxCell>
                <mxCell id="8" value="SportPage" style="text;html=1;strokeColor=none;fillColor=none;align=center;verticalAlign=middle;whiteSpace=wrap;rounded=0;" vertex="1" parent="1">
                    <mxGeometry x="54.5" y="192" width="60" height="30" as="geometry"/>
                </mxCell>
                <mxCell id="9" value="" style="endArrow=classic;html=1;" edge="1" parent="1" target="24">
                    <mxGeometry width="50" height="50" relative="1" as="geometry">
                        <mxPoint x="150" y="246.875" as="sourcePoint"/>
                        <mxPoint x="180" y="100" as="targetPoint"/>
                    </mxGeometry>
                </mxCell>
                <mxCell id="10" value="GET /formoverview&lt;br&gt;- formname&lt;br&gt;- appId&lt;br&gt;- daterange&lt;br&gt;- csv = false" style="text;html=1;strokeColor=none;fillColor=none;align=center;verticalAlign=middle;whiteSpace=wrap;rounded=0;" vertex="1" parent="1">
                    <mxGeometry x="170" y="295" width="130" height="65" as="geometry"/>
                </mxCell>
                <mxCell id="14" value="AWS Step Functions workflow" style="sketch=0;outlineConnect=0;gradientColor=none;html=1;whiteSpace=wrap;fontSize=12;fontStyle=0;shape=mxgraph.aws4.group;grIcon=mxgraph.aws4.group_aws_step_functions_workflow;strokeColor=#E8E8E8;fillColor=none;verticalAlign=top;align=left;spacingLeft=30;fontColor=#E8E8E8;dashed=0;" vertex="1" parent="1">
                    <mxGeometry x="380" y="370" width="480" height="240" as="geometry"/>
                </mxCell>
                <mxCell id="15" value="Amazon DynamoDB" style="sketch=0;outlineConnect=0;fontColor=#232F3E;gradientColor=none;strokeColor=#ffffff;fillColor=#232F3E;dashed=0;verticalLabelPosition=middle;verticalAlign=bottom;align=center;html=1;whiteSpace=wrap;fontSize=10;fontStyle=1;spacing=3;shape=mxgraph.aws4.productIcon;prIcon=mxgraph.aws4.dynamodb;" vertex="1" parent="1">
                    <mxGeometry x="690" y="168" width="70" height="89" as="geometry"/>
                </mxCell>
                <mxCell id="16" value="Form Overview Downloads" style="text;html=1;strokeColor=none;fillColor=none;align=center;verticalAlign=middle;whiteSpace=wrap;rounded=0;" vertex="1" parent="1">
                    <mxGeometry x="695" y="270" width="60" height="30" as="geometry"/>
                </mxCell>
                <mxCell id="17" value="Dates&lt;br&gt;(week,&lt;br&gt;&amp;nbsp;month, year)" style="shape=step;perimeter=stepPerimeter;whiteSpace=wrap;html=1;fixedSize=1;" vertex="1" parent="1">
                    <mxGeometry x="511" y="452" width="100" height="90" as="geometry"/>
                </mxCell>
                <mxCell id="18" value="Sport&lt;br&gt;Overviews&lt;br&gt;All appIDs&lt;br&gt;en alle sport" style="shape=step;perimeter=stepPerimeter;whiteSpace=wrap;html=1;fixedSize=1;" vertex="1" parent="1">
                    <mxGeometry x="631" y="452" width="100" height="90" as="geometry"/>
                </mxCell>
                <mxCell id="19" value="" style="endArrow=classic;html=1;exitX=1;exitY=1;exitDx=0;exitDy=0;" edge="1" parent="1" source="20" target="3">
                    <mxGeometry width="50" height="50" relative="1" as="geometry">
                        <mxPoint x="180" y="210" as="sourcePoint"/>
                        <mxPoint x="230" y="160" as="targetPoint"/>
                    </mxGeometry>
                </mxCell>
                <mxCell id="20" value="&lt;span style=&quot;font-family: Helvetica; font-size: 12px; font-style: normal; font-variant-ligatures: normal; font-variant-caps: normal; font-weight: 400; letter-spacing: normal; orphans: 2; text-align: center; text-indent: 0px; text-transform: none; widows: 2; word-spacing: 0px; -webkit-text-stroke-width: 0px; text-decoration-thickness: initial; text-decoration-style: initial; text-decoration-color: initial; float: none; display: inline !important;&quot;&gt;&lt;font style=&quot;background-color: rgb(255, 255, 255);&quot; color=&quot;#000000&quot;&gt;&lt;br&gt;Overview recent submissions by appId&lt;/font&gt;&lt;br&gt;&lt;/span&gt;" style="text;html=1;align=center;verticalAlign=middle;whiteSpace=wrap;rounded=0;fillColor=none;" vertex="1" parent="1">
                    <mxGeometry x="14.5" y="270" width="125.5" height="30" as="geometry"/>
                </mxCell>
                <mxCell id="21" value="" style="sketch=0;points=[[0,0,0],[0.25,0,0],[0.5,0,0],[0.75,0,0],[1,0,0],[0,1,0],[0.25,1,0],[0.5,1,0],[0.75,1,0],[1,1,0],[0,0.25,0],[0,0.5,0],[0,0.75,0],[1,0.25,0],[1,0.5,0],[1,0.75,0]];outlineConnect=0;fontColor=#232F3E;gradientColor=#FF4F8B;gradientDirection=north;fillColor=#BC1356;strokeColor=#ffffff;dashed=0;verticalLabelPosition=bottom;verticalAlign=top;align=center;html=1;fontSize=12;fontStyle=0;aspect=fixed;shape=mxgraph.aws4.resourceIcon;resIcon=mxgraph.aws4.eventbridge;" vertex="1" parent="1">
                    <mxGeometry x="420" y="483.5" width="58.5" height="58.5" as="geometry"/>
                </mxCell>
                <mxCell id="22" value="Schedule with scope&amp;nbsp;" style="text;html=1;strokeColor=none;fillColor=none;align=center;verticalAlign=middle;whiteSpace=wrap;rounded=0;" vertex="1" parent="1">
                    <mxGeometry x="418.5" y="440" width="60" height="30" as="geometry"/>
                </mxCell>
                <mxCell id="23" value="Add formname&lt;br&gt;appId" style="html=1;shadow=0;dashed=0;shape=mxgraph.bootstrap.rrect;rSize=5;strokeColor=#999999;strokeWidth=1;fillColor=#FFFFFF;fontColor=#6C767D;whiteSpace=wrap;align=left;verticalAlign=middle;spacingLeft=10;fontSize=14;spacing=10;" vertex="1" parent="1">
                    <mxGeometry x="770" y="162.5" width="90" height="65.5" as="geometry"/>
                </mxCell>
                <mxCell id="24" value="" style="outlineConnect=0;dashed=0;verticalLabelPosition=bottom;verticalAlign=top;align=center;html=1;shape=mxgraph.aws3.lambda_function;fillColor=#F58534;gradientColor=none;" vertex="1" parent="1">
                    <mxGeometry x="442" y="84" width="69" height="72" as="geometry"/>
                </mxCell>
                <mxCell id="25" value="Download FormOverview" style="text;html=1;strokeColor=none;fillColor=none;align=center;verticalAlign=middle;whiteSpace=wrap;rounded=0;" vertex="1" parent="1">
                    <mxGeometry x="451" y="156" width="60" height="30" as="geometry"/>
                </mxCell>
                <mxCell id="27" value="&lt;span style=&quot;font-family: Helvetica; font-size: 12px; font-style: normal; font-variant-ligatures: normal; font-variant-caps: normal; font-weight: 400; letter-spacing: normal; orphans: 2; text-align: center; text-indent: 0px; text-transform: none; widows: 2; word-spacing: 0px; -webkit-text-stroke-width: 0px; text-decoration-thickness: initial; text-decoration-style: initial; text-decoration-color: initial; float: none; display: inline !important; background-color: rgb(255, 255, 255);&quot;&gt;&lt;font style=&quot;&quot; color=&quot;#000000&quot;&gt;Recent Downloads By AppID&lt;/font&gt;&lt;/span&gt;" style="text;html=1;fillColor=none;align=center;verticalAlign=middle;whiteSpace=wrap;rounded=0;" vertex="1" parent="1">
                    <mxGeometry x="24.5" y="227" width="110" height="30" as="geometry"/>
                </mxCell>
                <mxCell id="28" value="GET /downloadFormoverview&lt;br&gt;Param: appId of formName" style="text;html=1;strokeColor=none;fillColor=none;align=center;verticalAlign=middle;whiteSpace=wrap;rounded=0;" vertex="1" parent="1">
                    <mxGeometry x="150" y="88" width="150" height="80" as="geometry"/>
                </mxCell>
                <mxCell id="29" value="" style="endArrow=classic;html=1;" edge="1" parent="1" target="3">
                    <mxGeometry width="50" height="50" relative="1" as="geometry">
                        <mxPoint x="680" y="430" as="sourcePoint"/>
                        <mxPoint x="730" y="380" as="targetPoint"/>
                    </mxGeometry>
                </mxCell>
                <mxCell id="30" value="GET /formoverview&lt;br&gt;- formname&lt;br&gt;- appId&lt;br&gt;- daterange&lt;br&gt;- csv = true" style="text;html=1;strokeColor=none;fillColor=none;align=center;verticalAlign=middle;whiteSpace=wrap;rounded=0;" vertex="1" parent="1">
                    <mxGeometry x="550" y="292.5" width="130" height="65" as="geometry"/>
                </mxCell>
                <mxCell id="31" value="" style="endArrow=classic;html=1;" edge="1" parent="1" target="15">
                    <mxGeometry width="50" height="50" relative="1" as="geometry">
                        <mxPoint x="520" y="240" as="sourcePoint"/>
                        <mxPoint x="570" y="190" as="targetPoint"/>
                    </mxGeometry>
                </mxCell>
                <mxCell id="32" value="" style="endArrow=classic;html=1;" edge="1" parent="1" source="15" target="24">
                    <mxGeometry width="50" height="50" relative="1" as="geometry">
                        <mxPoint x="525" y="152.8" as="sourcePoint"/>
                        <mxPoint x="695" y="129.99512195121957" as="targetPoint"/>
                    </mxGeometry>
                </mxCell>
            </root>
        </mxGraphModel>
    </diagram>
</mxfile>